<svg xmlns="http://www.w3.org/2000/svg" data-name="Layer 1" viewBox="0 0 48 60" x="0px" y="0px" fill="green"><path d="M31.665,23.272a.75.75,0,0,0-1.338.678,28.37,28.37,0,0,1,2.793,7.842,11.85,11.85,0,0,1-2.535,9.939A14.228,14.228,0,0,1,19.759,46.5,14.379,14.379,0,0,1,8.821,41.676a11.788,11.788,0,0,1-2.538-9.884C7.839,22.637,17.312,11.519,19.7,8.832c.332.372.8.9,1.36,1.567a.75.75,0,1,0,1.146-.968C21.037,8.045,20.28,7.236,20.248,7.2a.773.773,0,0,0-1.1,0c-.508.544-12.5,13.451-14.348,24.337A13.248,13.248,0,0,0,7.676,42.645,15.889,15.889,0,0,0,19.759,48,15.736,15.736,0,0,0,31.73,42.7,13.306,13.306,0,0,0,34.6,31.54,29.836,29.836,0,0,0,31.665,23.272Z"/><path d="M14.836,44.243a.744.744,0,0,0,.325.074.749.749,0,0,0,.327-1.425,11.932,11.932,0,0,1-3.917-2.986,9.972,9.972,0,0,1-2.292-5.157.75.75,0,1,0-1.486.2,11.452,11.452,0,0,0,2.632,5.922A13.444,13.444,0,0,0,14.836,44.243Z"/><path d="M8.488,32.723a.751.751,0,0,0,.746-.678c.032-.325.075-.653.131-.986.081-.478.184-.962.3-1.451a.75.75,0,0,0-1.455-.361c-.131.525-.241,1.047-.328,1.561-.063.367-.112.732-.147,1.092a.753.753,0,0,0,.675.82C8.439,32.722,8.464,32.723,8.488,32.723Z"/><path d="M43.362.47A.723.723,0,0,0,42.651,0c-.5.011-12.255.351-17.845,8.273-2.893,4.1-2.854,6.919-2.435,9.135A5.478,5.478,0,0,0,27.8,21.87h.073a10.262,10.262,0,0,0,7.573-3.655c2.269-2.426,2.861-5.789,3.337-8.491a21.989,21.989,0,0,1,.507-2.409A15.8,15.8,0,0,1,43.176,1.3.752.752,0,0,0,43.362.47ZM37.855,6.876a22.744,22.744,0,0,0-.55,2.587c-.442,2.507-.992,5.627-2.955,7.726a8.816,8.816,0,0,1-6.473,3.181h-.065a3.993,3.993,0,0,1-3.966-3.241c-.362-1.907-.384-4.348,2.186-7.99,3.879-5.5,11.3-7.046,14.77-7.476A15.762,15.762,0,0,0,37.855,6.876Z"/><path d="M25.786,17.593a.751.751,0,0,0,.992-.375,32.51,32.51,0,0,1,3.129-5.128,41.389,41.389,0,0,1,6.1-6.563.75.75,0,0,0-.96-1.152,41.924,41.924,0,0,0-6.356,6.834A34.05,34.05,0,0,0,25.411,16.6.749.749,0,0,0,25.786,17.593Z"/><text x="0" y="63" fill="#000000" font-size="5px" font-weight="bold" font-family="'Helvetica Neue', Helvetica, Arial-Unicode, Arial, Sans-serif">Created by Koson Rattanaphan</text><text x="0" y="68" fill="#000000" font-size="5px" font-weight="bold" font-family="'Helvetica Neue', Helvetica, Arial-Unicode, Arial, Sans-serif">from the Noun Project</text></svg>