<svg xmlns="http://www.w3.org/2000/svg" viewBox="0 0 32 32"><title>terre</title><g id="Capa_1" data-name="Capa 1"><path d="M28,26.61a16,16,0,0,0-.31-21.55h0a16,16,0,0,0-11.1-5h-1.1a16,16,0,0,0-11.1,5h0A16,16,0,0,0,4,26.61a0,0,0,0,1,0,0l0,0A16,16,0,0,0,15.45,32h1.1a16,16,0,0,0,11.38-5.35l0,0A0,0,0,0,1,28,26.61ZM1.12,16.55H7.74a20.41,20.41,0,0,0,1.33,6.74A20.27,20.27,0,0,0,4.6,25.57,14.77,14.77,0,0,1,1.12,16.55ZM4.9,6.08A20,20,0,0,0,9.26,8.22a20.32,20.32,0,0,0-1.52,7.23H1.12A14.8,14.8,0,0,1,4.9,6.08Zm26,9.37H24.26a20.32,20.32,0,0,0-1.52-7.23A20,20,0,0,0,27.1,6.08,14.8,14.8,0,0,1,30.88,15.45ZM15.45,8.26a19.84,19.84,0,0,1-4.68-.71,19.19,19.19,0,0,1,4.68-6.09Zm0,1.1v6.09H8.84a19.26,19.26,0,0,1,1.47-6.88A20.56,20.56,0,0,0,15.45,9.36Zm1.1,0a20.56,20.56,0,0,0,5.14-.79,19.26,19.26,0,0,1,1.47,6.88H16.55Zm0-1.1V1.46a19.19,19.19,0,0,1,4.68,6.09A19.84,19.84,0,0,1,16.55,8.26Zm5.74-1a20.49,20.49,0,0,0-4.35-6,14.94,14.94,0,0,1,8.38,4A18.69,18.69,0,0,1,22.29,7.21Zm-12.58,0a18.69,18.69,0,0,1-4-1.94,14.94,14.94,0,0,1,8.38-4A20.49,20.49,0,0,0,9.71,7.21Zm-.87,9.34h6.61v5.54a20.26,20.26,0,0,0-5.33.85A19.39,19.39,0,0,1,8.84,16.55Zm6.61,6.64v7.35A19.13,19.13,0,0,1,10.55,24,19.14,19.14,0,0,1,15.45,23.19Zm1.1,7.35V23.19a19.14,19.14,0,0,1,4.9.78A19.13,19.13,0,0,1,16.55,30.54Zm0-8.45V16.55h6.61a19.39,19.39,0,0,1-1.28,6.39A20.26,20.26,0,0,0,16.55,22.09Zm7.71-5.54h6.62a14.77,14.77,0,0,1-3.48,9,20.27,20.27,0,0,0-4.47-2.28A20.41,20.41,0,0,0,24.26,16.55ZM5.35,26.4a18.94,18.94,0,0,1,4.14-2.09,20.5,20.5,0,0,0,4.57,6.46A14.91,14.91,0,0,1,5.35,26.4Zm12.59,4.37a20.5,20.5,0,0,0,4.57-6.46,18.94,18.94,0,0,1,4.14,2.09A14.91,14.91,0,0,1,17.94,30.77Z"/></g></svg>